<mxfile host="Electron" modified="2023-06-05T09:09:38.796Z" agent="Mozilla/5.0 (Windows NT 10.0; Win64; x64) AppleWebKit/537.36 (KHTML, like Gecko) draw.io/21.2.8 Chrome/112.0.5615.165 Electron/24.2.0 Safari/537.36" etag="1iCLvCSeZSYx-WyZLn0t" version="21.2.8" type="device">
  <diagram name="第 1 页" id="MPuBqrFiGif8yEJCdi49">
    <mxGraphModel dx="954" dy="717" grid="1" gridSize="10" guides="1" tooltips="1" connect="1" arrows="1" fold="1" page="1" pageScale="1" pageWidth="827" pageHeight="1169" math="0" shadow="0">
      <root>
        <mxCell id="0" />
        <mxCell id="1" parent="0" />
        <mxCell id="tURc2DfD4sJObwYSXB0--1" value="DB" style="shape=cylinder3;whiteSpace=wrap;html=1;boundedLbl=1;backgroundOutline=1;size=15;" parent="1" vertex="1">
          <mxGeometry x="720" y="120" width="60" height="80" as="geometry" />
        </mxCell>
        <mxCell id="tURc2DfD4sJObwYSXB0--4" style="edgeStyle=orthogonalEdgeStyle;rounded=0;orthogonalLoop=1;jettySize=auto;html=1;startArrow=classic;startFill=1;" parent="1" source="tURc2DfD4sJObwYSXB0--3" target="tURc2DfD4sJObwYSXB0--1" edge="1">
          <mxGeometry relative="1" as="geometry" />
        </mxCell>
        <mxCell id="tURc2DfD4sJObwYSXB0--3" value="service-dba" style="shape=process;whiteSpace=wrap;html=1;backgroundOutline=1;" parent="1" vertex="1">
          <mxGeometry x="480" y="130" width="120" height="60" as="geometry" />
        </mxCell>
        <mxCell id="tURc2DfD4sJObwYSXB0--5" value="DAO" style="shape=note;whiteSpace=wrap;html=1;backgroundOutline=1;darkOpacity=0.05;size=10;fillColor=#f8cecc;strokeColor=#b85450;" parent="1" vertex="1">
          <mxGeometry x="630" y="80" width="50" height="60" as="geometry" />
        </mxCell>
        <mxCell id="tURc2DfD4sJObwYSXB0--10" style="edgeStyle=orthogonalEdgeStyle;rounded=0;orthogonalLoop=1;jettySize=auto;html=1;fontFamily=Helvetica;fontSize=12;fontColor=default;startArrow=classic;startFill=1;" parent="1" source="tURc2DfD4sJObwYSXB0--9" target="tURc2DfD4sJObwYSXB0--3" edge="1">
          <mxGeometry relative="1" as="geometry" />
        </mxCell>
        <mxCell id="tURc2DfD4sJObwYSXB0--34" style="edgeStyle=orthogonalEdgeStyle;rounded=0;orthogonalLoop=1;jettySize=auto;html=1;fontFamily=Helvetica;fontSize=12;fontColor=default;startArrow=classic;startFill=1;" parent="1" source="tURc2DfD4sJObwYSXB0--9" target="tURc2DfD4sJObwYSXB0--30" edge="1">
          <mxGeometry relative="1" as="geometry" />
        </mxCell>
        <mxCell id="tURc2DfD4sJObwYSXB0--9" value="service-api" style="shape=process;whiteSpace=wrap;html=1;backgroundOutline=1;" parent="1" vertex="1">
          <mxGeometry x="240" y="130" width="120" height="60" as="geometry" />
        </mxCell>
        <mxCell id="tURc2DfD4sJObwYSXB0--12" value="DTO" style="shape=note;whiteSpace=wrap;html=1;backgroundOutline=1;darkOpacity=0.05;size=10;fillColor=#fff2cc;strokeColor=#d6b656;" parent="1" vertex="1">
          <mxGeometry x="389" y="80" width="50" height="60" as="geometry" />
        </mxCell>
        <mxCell id="tURc2DfD4sJObwYSXB0--14" style="edgeStyle=orthogonalEdgeStyle;rounded=0;orthogonalLoop=1;jettySize=auto;html=1;fontFamily=Helvetica;fontSize=12;fontColor=default;startArrow=classic;startFill=1;" parent="1" source="tURc2DfD4sJObwYSXB0--13" target="tURc2DfD4sJObwYSXB0--9" edge="1">
          <mxGeometry relative="1" as="geometry" />
        </mxCell>
        <mxCell id="tURc2DfD4sJObwYSXB0--13" value="App" style="shape=umlActor;verticalLabelPosition=bottom;verticalAlign=top;html=1;outlineConnect=0;strokeColor=default;fontFamily=Helvetica;fontSize=12;fontColor=default;fillColor=default;" parent="1" vertex="1">
          <mxGeometry x="80" y="130" width="30" height="60" as="geometry" />
        </mxCell>
        <mxCell id="tURc2DfD4sJObwYSXB0--15" value="VO" style="shape=note;whiteSpace=wrap;html=1;backgroundOutline=1;darkOpacity=0.05;size=10;fillColor=#d5e8d4;strokeColor=#82b366;" parent="1" vertex="1">
          <mxGeometry x="150" y="80" width="50" height="60" as="geometry" />
        </mxCell>
        <mxCell id="tURc2DfD4sJObwYSXB0--36" style="rounded=0;orthogonalLoop=1;jettySize=auto;html=1;fontFamily=Helvetica;fontSize=12;fontColor=default;exitX=0.5;exitY=0;exitDx=0;exitDy=0;entryX=1;entryY=1;entryDx=0;entryDy=0;startArrow=classic;startFill=1;" parent="1" source="tURc2DfD4sJObwYSXB0--18" target="tURc2DfD4sJObwYSXB0--9" edge="1">
          <mxGeometry relative="1" as="geometry" />
        </mxCell>
        <mxCell id="tURc2DfD4sJObwYSXB0--18" value="service-dba" style="shape=process;whiteSpace=wrap;html=1;backgroundOutline=1;" parent="1" vertex="1">
          <mxGeometry x="480" y="370" width="120" height="60" as="geometry" />
        </mxCell>
        <mxCell id="tURc2DfD4sJObwYSXB0--20" value="Data Access Object" style="text;html=1;strokeColor=none;fillColor=none;align=center;verticalAlign=middle;whiteSpace=wrap;rounded=0;fontSize=12;fontFamily=Helvetica;fontColor=default;" parent="1" vertex="1">
          <mxGeometry x="615" y="40" width="80" height="30" as="geometry" />
        </mxCell>
        <mxCell id="tURc2DfD4sJObwYSXB0--21" value="Value Object" style="text;html=1;strokeColor=none;fillColor=none;align=center;verticalAlign=middle;whiteSpace=wrap;rounded=0;fontSize=12;fontFamily=Helvetica;fontColor=default;" parent="1" vertex="1">
          <mxGeometry x="150" y="40" width="50" height="30" as="geometry" />
        </mxCell>
        <mxCell id="tURc2DfD4sJObwYSXB0--22" value="Data Transfer Object" style="text;html=1;strokeColor=none;fillColor=none;align=center;verticalAlign=middle;whiteSpace=wrap;rounded=0;fontSize=12;fontFamily=Helvetica;fontColor=default;" parent="1" vertex="1">
          <mxGeometry x="374" y="40" width="80" height="30" as="geometry" />
        </mxCell>
        <mxCell id="tURc2DfD4sJObwYSXB0--24" value="DB" style="shape=cylinder3;whiteSpace=wrap;html=1;boundedLbl=1;backgroundOutline=1;size=15;" parent="1" vertex="1">
          <mxGeometry x="720" y="360" width="60" height="80" as="geometry" />
        </mxCell>
        <mxCell id="tURc2DfD4sJObwYSXB0--25" style="edgeStyle=orthogonalEdgeStyle;rounded=0;orthogonalLoop=1;jettySize=auto;html=1;fontFamily=Helvetica;fontSize=12;fontColor=default;startArrow=classic;startFill=1;" parent="1" source="tURc2DfD4sJObwYSXB0--18" target="tURc2DfD4sJObwYSXB0--24" edge="1">
          <mxGeometry relative="1" as="geometry">
            <mxPoint x="600" y="320" as="sourcePoint" />
          </mxGeometry>
        </mxCell>
        <mxCell id="tURc2DfD4sJObwYSXB0--28" value="PO/DO" style="shape=note;whiteSpace=wrap;html=1;backgroundOutline=1;darkOpacity=0.05;size=10;fillColor=#ffe6cc;strokeColor=#d79b00;" parent="1" vertex="1">
          <mxGeometry x="389" y="320" width="50" height="60" as="geometry" />
        </mxCell>
        <mxCell id="tURc2DfD4sJObwYSXB0--29" value="Persistent Object" style="text;html=1;strokeColor=none;fillColor=none;align=center;verticalAlign=middle;whiteSpace=wrap;rounded=0;fontSize=12;fontFamily=Helvetica;fontColor=default;" parent="1" vertex="1">
          <mxGeometry x="374" y="280" width="80" height="30" as="geometry" />
        </mxCell>
        <mxCell id="tURc2DfD4sJObwYSXB0--30" value="service-api" style="shape=process;whiteSpace=wrap;html=1;backgroundOutline=1;" parent="1" vertex="1">
          <mxGeometry x="240" y="370" width="120" height="60" as="geometry" />
        </mxCell>
        <mxCell id="tURc2DfD4sJObwYSXB0--31" style="edgeStyle=orthogonalEdgeStyle;rounded=0;orthogonalLoop=1;jettySize=auto;html=1;fontFamily=Helvetica;fontSize=12;fontColor=default;startArrow=classic;startFill=1;" parent="1" source="tURc2DfD4sJObwYSXB0--30" target="tURc2DfD4sJObwYSXB0--18" edge="1">
          <mxGeometry relative="1" as="geometry">
            <mxPoint x="610" y="410" as="sourcePoint" />
            <mxPoint x="730" y="410" as="targetPoint" />
          </mxGeometry>
        </mxCell>
        <mxCell id="tURc2DfD4sJObwYSXB0--32" value="BO" style="shape=note;whiteSpace=wrap;html=1;backgroundOutline=1;darkOpacity=0.05;size=10;fillColor=#fff2cc;strokeColor=#d6b656;" parent="1" vertex="1">
          <mxGeometry x="230" y="260" width="50" height="60" as="geometry" />
        </mxCell>
        <mxCell id="tURc2DfD4sJObwYSXB0--33" value="Business Object" style="text;html=1;strokeColor=none;fillColor=none;align=center;verticalAlign=middle;whiteSpace=wrap;rounded=0;fontSize=12;fontFamily=Helvetica;fontColor=default;" parent="1" vertex="1">
          <mxGeometry x="215" y="220" width="80" height="30" as="geometry" />
        </mxCell>
        <mxCell id="CokRLOBN4ansubAdiVnd-1" value="DAO" style="shape=note;whiteSpace=wrap;html=1;backgroundOutline=1;darkOpacity=0.05;size=10;fillColor=#f8cecc;strokeColor=#b85450;" vertex="1" parent="1">
          <mxGeometry x="630" y="320" width="50" height="60" as="geometry" />
        </mxCell>
        <mxCell id="CokRLOBN4ansubAdiVnd-2" value="Data Access Object" style="text;html=1;strokeColor=none;fillColor=none;align=center;verticalAlign=middle;whiteSpace=wrap;rounded=0;fontSize=12;fontFamily=Helvetica;fontColor=default;" vertex="1" parent="1">
          <mxGeometry x="615" y="280" width="80" height="30" as="geometry" />
        </mxCell>
      </root>
    </mxGraphModel>
  </diagram>
</mxfile>
